<?xml version="1.0" encoding="UTF-8"?>
<svg id="Layer_1" xmlns="http://www.w3.org/2000/svg" xmlns:xlink="http://www.w3.org/1999/xlink" version="1.1" viewBox="0 0 311.4 311.4">
  <!-- Generator: Adobe Illustrator 30.0.0, SVG Export Plug-In . SVG Version: 2.1.1 Build 123)  -->
  <defs>
    <style>
      .st0 {
        fill: url(#linear-gradient);
      }

      .st1 {
        fill: #fff;
      }

      .st2 {
        fill: #5373a5;
      }
    </style>
    <linearGradient id="linear-gradient" x1="130.7" y1="303.4" x2="182.8" y2="7.6" gradientTransform="translate(0 312) scale(1 -1)" gradientUnits="userSpaceOnUse">
      <stop offset=".2" stop-color="#89aee8"/>
      <stop offset=".8" stop-color="#759ed8"/>
    </linearGradient>
  </defs>
  <g id="Layer_11" data-name="Layer_1">
    <circle class="st0" cx="156.8" cy="156.5" r="150.2"/>
  </g>
  <g id="Layer_3">
    <path class="st2" d="M122.8,273.3c7.8-1,8.3-7.5,13.8-10.7l-2.7-2.4c-6.2,3.3-9.6,6-11.2,13.1h0ZM117.1,267.6c-.3.1-4.7.2-5,2.5,4.1.2,4.7-1.6,8.5,1.3l2.9-6.9c-5.1-1.1-6,2.9-6.3,3.1h0ZM167.5,252c-4.7,1.2-7.4,3.2-9.6,6.3,0,0,.1,0,.1,0,4.3.4,7.8-2.1,9.4-6.3h0ZM265.7,101.2c-16,2.9-22.8,17.6-42.4,16.2-12.8-.9-49.9-16-65.1-20.6-1.3-.4-2.2,1.3-2.6,1.2-1.1-.3-14.2-12.4-17.9-14.6-10.7-6.3-27.3-12.6-39.4-7.1-6.4,2.9-13,13.9-19.2,16.1-6.9,2.5-16.2-1.3-22.8,3.6l-.3,1.9c7.9,3,19.6,1,26.4,6,.3.2.6.5.9.8,1.1,1.1,2.2,2.5,3.3,4.1,1.9,3,3.3,6.6,4.9,9.6.7,1.6,1.2,3,1.6,4,.4,1.2.7,2.5.7,3.7,0,3.6,0,11.6,0,17,1.9,25,25.3,52.6,48.4,61.5,4,1.5,21.3,5.1,22.4,7.2.5,2.2.3,7.4-.3,9.4-.8,2.7-16.9,30.2-19.1,32.5-1.6,1.7-7,.5-4.1,5.1l-4.4-1.2c.3,4.6,4.8,6.1,2.5,11.3.7,0,1.3-.1,2-.2.4-1.5.8-3.4.5-4.8l-.6-2.8c5.8-1.9,3.1-2.2,4.5-4.3,8.2-12.2,16.8-24.5,25-36.8,1.2-1.8,2.4-8.1,4.1-9.1,3.1-1.8,20.5-.9,25.6-5.6l-1.9,9.8,1.2,1.2-19.2,25.4.3,3.2-3.1-1.9c-6.1,8.2-14.4,15.5-13.6,26.4,3.1-2.4,4.4-6.5,6.4-9.4,1.4-2,4.5-3,4.6-3.2,1.5-3.1-.7-9.1,2.9-11.9l1.6,1c-2.5,6.1-3.4,12-.7,18.2l3.2,1.5c-6.3-6.6-1.1-7-.7-8.5.3-.9-1-3.1-.5-4.9,4.4-18.2,28.9-38.8,30.1-47.4.3-1.9-1.3-3.8-1-6,.9-6.3,10.6-8.6,14.9-12,6.8-5.4,14.1-12.5,19.3-20,.9-1.3,1.2-4.1,2.2-5.6-.2,0-.4,0-.6,0-8.3.7-16.6,1.4-24.9,2-8.9.7-17.9,1.2-26.8,1.6-3.6.1-7.2.2-10.8.2-2.5,0-5,0-7.4-.4-5.9-.9-11.6-2.9-16.8-5.8-2.2-1.3-4.5-2.7-6.4-4.4-.5-.5,1.1-1.1,1.6-.7.1.1.3.2.4.4,2.8,2.3,6,4.2,9.2,5.7,4.5,2.1,9.5,3.6,14.5,4,6.6.5,13.3.1,19.9-.2,8.9-.4,17.9-1,26.8-1.7,7.6-.6,15.3-1.2,22.9-1.9,3.1-1.2,9.7-1.1,12.4-1.3-2-4.9-9.6-4-8.5-10.1.6-3.4,5.1-6.7,6.6-9.8,1.8-3.9,1.9-8,4.6-13,4.4-8.2,11.6-12.4,16.9-19.5-.2-8-8.2-6.3-14-5.3h0ZM110.7,93.2c-.3.8-.8,1.8-1.6,2.3-.9.5-2,.4-2.9,0-.5-.2-.9-.6-1.2-1.1-.4-.6-.6-1.4-.6-2.2s0-.2.1-.3c0,0,.1-.2.1-.1,0,.8.2,1.6.6,2.3.6.8,1.5,1.2,2.4,1.3.5,0,1,0,1.5-.2.3-.1.5-.3.8-.6.3-.3.4-.6.5-1,0-.1,0-.2.2-.3,0,0,.1-.2,0,0h0ZM107.8,89.8c-1.4,0-2.8,1-3.2.9-1.2-.2,1.4-1.7,3.3-1.8,2.4,0,3.3.8,3.3,1.2s-2-.2-3.5-.3h0ZM160.3,261.4l-2.2-3.1s-2.2,3-3.2,6.2c2.6-.5,5.1-.5,7.6.7l-1.3-5.6-.9,1.9h0Z"/>
    <path class="st1" d="M156.1,256.2l-2.2-3.1s-2.2,3-3.2,6.2c2.6-.5,5.1-.5,7.6.7l-1.3-5.6-.9,1.9h0ZM118.6,268.1c7.8-1,8.2-7.5,13.8-10.7l-2.7-2.4c-6.2,3.3-9.6,6-11.2,13.1h0ZM112.9,262.5c-.3.1-4.7.2-5,2.5,4.1.2,4.7-1.6,8.5,1.3l2.9-6.9c-5.1-1.1-6,2.9-6.3,3.1h0ZM163.3,246.8c-4.7,1.2-7.4,3.2-9.6,6.3,0,0,.1,0,.1,0,4.3.4,7.8-2.1,9.4-6.3h0ZM261.5,96c-16,2.9-22.8,17.6-42.4,16.2-12.8-.9-49.9-16-65.1-20.6-1.3-.4-2.2,1.3-2.6,1.2-1.1-.3-14.2-12.4-17.9-14.6-10.7-6.3-27.3-12.6-39.4-7.1-6.4,2.9-13,13.9-19.2,16.1-6.9,2.5-16.2-1.3-22.8,3.6l-.3,1.9c7.9,3,19.6,1,26.4,6,.3.2.6.5.9.8,1.1,1.1,2.2,2.5,3.3,4.1,1.9,3,3.3,6.6,4.9,9.6.7,1.6,1.2,3,1.6,4,.4,1.2.7,2.5.7,3.7,0,3.6,0,11.6,0,17,1.9,25,25.3,52.6,48.4,61.5,4,1.5,21.3,5.1,22.4,7.2.5,2.2.3,7.4-.3,9.4-.8,2.7-16.9,30.2-19.1,32.5-1.6,1.7-7,.5-4.1,5.1l-4.4-1.2c.3,4.6,4.8,6.1,2.5,11.3.7,0,1.3-.1,2-.2.4-1.5.8-3.4.5-4.8l-.6-2.8c5.8-1.9,3.1-2.2,4.5-4.3,8.2-12.2,16.8-24.5,25-36.8,1.2-1.8,2.4-8.1,4.1-9.1,3.1-1.8,20.5-.9,25.6-5.6l-1.9,9.8,1.2,1.2-19.2,25.4.3,3.2-3.1-1.9c-6.1,8.2-14.4,15.5-13.6,26.4,3.1-2.4,4.4-6.5,6.4-9.4,1.4-2.1,4.5-3,4.6-3.2,1.5-3.1-.7-9.1,2.9-11.9l1.6,1c-2.5,6.1-3.4,12-.7,18.2l3.2,1.5c-6.3-6.6-1.1-7.1-.7-8.6.3-.9-1-3.1-.5-4.9,4.4-18.2,28.9-38.8,30.1-47.4.3-1.9-1.3-3.8-1-6,.9-6.3,10.6-8.6,14.9-12,6.8-5.4,14.1-12.5,19.3-20,.9-1.3,1.2-4.1,2.2-5.6-.2,0-.4,0-.6,0-8.3.7-16.6,1.4-24.9,2-8.9.7-17.9,1.2-26.8,1.6-3.6.1-7.2.2-10.8.2-2.5,0-5,0-7.4-.4-5.9-.9-11.6-2.9-16.8-5.8-2.2-1.3-4.5-2.7-6.4-4.4-.5-.5,1.1-1.1,1.6-.7.1.1.3.2.4.4,2.8,2.3,6,4.2,9.2,5.7,4.5,2.1,9.5,3.6,14.5,4,6.6.5,13.3.1,19.9-.2,8.9-.4,17.9-1,26.8-1.7,7.6-.6,15.3-1.2,22.9-1.9,3.1-1.2,9.7-1.1,12.4-1.3-2-4.9-9.6-4-8.5-10.1.6-3.4,5.1-6.7,6.6-9.8,1.8-3.9,1.9-8,4.6-13,4.4-8.2,11.6-12.4,16.9-19.5-.2-8-8.2-6.3-14-5.3h0ZM106.5,88c-.3.8-.8,1.8-1.6,2.3-.9.5-2,.4-2.9,0-.5-.2-.9-.6-1.2-1.1-.4-.6-.6-1.4-.6-2.2s0-.2.1-.3c0,0,.1-.2.1-.1,0,.8.2,1.6.6,2.3.6.8,1.5,1.2,2.4,1.3.5,0,1,0,1.5-.2.3-.1.5-.3.8-.6.3-.3.4-.6.5-1,0-.1,0-.2.2-.3,0,0,.1-.2,0,0h0ZM103.6,84.6c-1.4,0-2.8,1-3.2.9-1.2-.2,1.4-1.7,3.3-1.8,2.4,0,3.3.8,3.3,1.2s-2-.2-3.5-.3h0Z"/>
  </g>
</svg>